<?xml version="1.0" encoding="UTF-8"?>
<!-- Fibonacci / golden-ratio construction
     PHI = 1.618033988749895
     DEPTH = 12
     DEPTH_TO_RENDER = 12
     SPIRAL_START_PARAM = -2.5
     SPIRAL_END_PARAM = 10
     SPIRAL_ANGLE_ADJUSTMENT = -170
     Outer ratio = WIDTH / HEIGHT = PHI -->
<svg xmlns="http://www.w3.org/2000/svg" viewBox="0 0 1000 618.034" role="img" aria-labelledby="title description">
  <title id="title">Golden-ratio rectangle with Fibonacci square and circle construction</title>
  <desc id="description">An outer rectangle with ratio PHI, divided into twelve calculated turning squares, with the first eight rendered. Each rendered square contains an inscribed circle, with a two-turn golden spiral overlaid and centered on the twelfth circle.</desc>
  <style>
    .outer { fill: none; stroke: #252b3c; stroke-width: 3; }
    .construction rect { fill: none; stroke: #FFFFFF; stroke-width: 4; }
    .construction circle { fill: none; stroke: #9b604d; stroke-width: 2; }
    .spiral { fill: none; stroke: #FFFFFF; stroke-width: 10; stroke-linecap: round; stroke-linejoin: round; }
  </style>
  <rect class="outer" x="0" y="0" width="1000" height="618.034" />
  <g class="construction rectangles">
    <rect data-depth="0" x="0.000" y="0.000" width="618.034" height="618.034" />
    <rect data-depth="1" x="618.034" y="0.000" width="381.966" height="381.966" />
    <rect data-depth="2" x="763.932" y="381.966" width="236.068" height="236.068" />
    <rect data-depth="3" x="618.034" y="472.136" width="145.898" height="145.898" />
    <rect data-depth="4" x="618.034" y="381.966" width="90.170" height="90.170" />
    <rect data-depth="5" x="708.204" y="381.966" width="55.728" height="55.728" />
    <rect data-depth="6" x="729.490" y="437.694" width="34.442" height="34.442" />
    <rect data-depth="7" x="708.204" y="450.850" width="21.286" height="21.286" />
    <rect data-depth="8" x="708.204" y="437.694" width="13.156" height="13.156" />
    <rect data-depth="9" x="721.360" y="437.694" width="8.131" height="8.131" />
    <rect data-depth="10" x="724.465" y="445.825" width="5.025" height="5.025" />
    <rect data-depth="11" x="721.360" y="447.744" width="3.106" height="3.106" />
  </g>
  <path class="spiral" d="M724.290 451.265 L724.525 451.175 L724.758 451.060 L724.984 450.918 L725.202 450.749 L725.408 450.554 L725.600 450.333 L725.774 450.087 L725.927 449.816 L726.058 449.523 L726.161 449.210 L726.236 448.878 L726.279 448.530 L726.287 448.168 L726.259 447.797 L726.193 447.418 L726.086 447.037 L725.938 446.657 L725.748 446.282 L725.515 445.916 L725.238 445.565 L724.919 445.233 L724.558 444.925 L724.156 444.646 L723.716 444.400 L723.240 444.193 L722.730 444.029 L722.190 443.912 L721.625 443.847 L721.038 443.838 L720.436 443.888 L719.823 444.000 L719.206 444.178 L718.591 444.423 L717.986 444.736 L717.396 445.120 L716.830 445.572 L716.296 446.094 L715.801 446.684 L715.353 447.339 L714.960 448.056 L714.630 448.832 L714.370 449.660 L714.188 450.537 L714.090 451.455 L714.082 452.406 L714.171 453.382 L714.361 454.375 L714.657 455.373 L715.062 456.368 L715.579 457.346 L716.208 458.297 L716.949 459.209 L717.803 460.069 L718.765 460.864 L719.833 461.583 L721.001 462.211 L722.264 462.736 L723.611 463.147 L725.036 463.432 L726.525 463.579 L728.068 463.579 L729.651 463.422 L731.258 463.101 L732.873 462.608 L734.481 461.938 L736.061 461.088 L737.596 460.056 L739.065 458.841 L740.449 457.446 L741.727 455.875 L742.878 454.134 L743.882 452.231 L744.718 450.177 L745.367 447.986 L745.810 445.672 L746.030 443.254 L746.010 440.752 L745.736 438.187 L745.194 435.585 L744.374 432.971 L743.267 430.372 L741.868 427.820 L740.175 425.344 L738.186 422.976 L735.905 420.750 L733.341 418.697 L730.502 416.853 L727.402 415.249 L724.061 413.919 L720.498 412.894 L716.740 412.205 L712.816 411.879 L708.758 411.944 L704.602 412.422 L700.388 413.334 L696.158 414.698 L691.958 416.526 L687.836 418.827 L683.842 421.606 L680.027 424.862 L676.445 428.589 L673.150 432.775 L670.194 437.403 L667.633 442.450 L665.519 447.887 L663.902 453.678 L662.832 459.782 L662.354 466.151 L662.510 472.733 L663.339 479.467 L664.872 486.290 L667.138 493.133 L670.157 499.921 L673.942 506.577 L678.501 513.020 L683.830 519.165 L689.921 524.927 L696.753 530.219 L704.297 534.953 L712.516 539.042 L721.361 542.402 L730.774 544.950 L740.687 546.607 L751.024 547.301 L761.696 546.963 L772.608 545.533 L783.655 542.958 L794.724 539.196 L805.696 534.213 L816.443 527.988 L826.834 520.512 L836.732 511.789 L846.000 501.838 L854.495 490.689 L862.076 478.393 L868.603 465.010 L873.939 450.622 L877.951 435.322 L880.513 419.222 L881.506 402.448 L880.821 385.143 L878.362 367.463 L874.044 349.579 L867.800 331.674 L859.578 313.944 L849.344 296.593 L837.086 279.835 L822.812 263.892 L806.552 248.989 L788.362 235.354 L768.321 223.215 L746.533 212.800 L723.127 204.330 L698.261 198.019 L672.115 194.070 L644.898 192.674 L616.839 194.006 L588.196 198.221 L559.245 205.453 L530.285 215.809 L501.633 229.372 L473.623 246.192 L446.600 266.288 L420.925 289.643 L396.962 316.205 L375.080 345.882 L355.649 378.543 L339.036 414.015 L325.598 452.085 L315.679 492.496 L309.610 534.952 L307.695 579.114 L310.214 624.605 L317.417 671.008 L329.517 717.871 L346.685 764.708 L369.049 811.005 L396.688 856.221 L429.628 899.790 L467.837 941.135 L511.224 979.661 L559.638 1014.771 L612.859 1045.867 L670.603 1072.358 L732.521 1093.666 L798.191 1109.235 L867.128 1118.536 L938.779 1121.077 L1012.528 1116.408 L1087.697 1104.131 L1163.549 1083.907 L1239.295 1055.463 L1314.098 1018.597 L1387.079 973.191 L1457.323 919.208 L1523.890 856.708 L1585.820 785.844 L1642.146 706.873 L1691.899 620.155" />
  <!-- Circle layer intentionally hidden for now; retain circleMarkup above for easy restoration.
  <g class="construction circles">
    <circle data-depth="0" cx="309.017" cy="309.017" r="309.017" />
    <circle data-depth="1" cx="809.017" cy="190.983" r="190.983" />
    <circle data-depth="2" cx="881.966" cy="500.000" r="118.034" />
    <circle data-depth="3" cx="690.983" cy="545.085" r="72.949" />
    <circle data-depth="4" cx="663.119" cy="427.051" r="45.085" />
    <circle data-depth="5" cx="736.068" cy="409.830" r="27.864" />
    <circle data-depth="6" cx="746.711" cy="454.915" r="17.221" />
    <circle data-depth="7" cx="718.847" cy="461.493" r="10.643" />
    <circle data-depth="8" cx="714.782" cy="444.272" r="6.578" />
    <circle data-depth="9" cx="725.425" cy="441.759" r="4.065" />
    <circle data-depth="10" cx="726.978" cy="448.337" r="2.512" />
    <circle data-depth="11" cx="722.912" cy="449.297" r="1.553" />
  </g>
  -->
</svg>
